HIERARCHY
ROOT Hips
{
	OFFSET 0.000000 0.000000 0.000000
	CHANNELS 6 Xposition Yposition Zposition Yrotation Xrotation Zrotation
	JOINT Spine
	{
		OFFSET 0.000000 11.335082 0.000008
		CHANNELS 6 Xposition Yposition Zposition Yrotation Xrotation Zrotation
		JOINT Spine1
		{
			OFFSET 0.000000 25.648983 0.000017
			CHANNELS 6 Xposition Yposition Zposition Yrotation Xrotation Zrotation
			JOINT Neck
			{
				OFFSET 0.000000 28.413631 0.000019
				CHANNELS 6 Xposition Yposition Zposition Yrotation Xrotation Zrotation
				JOINT Head
				{
					OFFSET 0.000000 21.426071 2.764667
					CHANNELS 6 Xposition Yposition Zposition Yrotation Xrotation Zrotation
					End Site
					{
						OFFSET 0.000000 27.646538 0.000018
					}
				}
			}
			JOINT LeftShoulder
			{
				OFFSET 5.517776 23.183556 -0.602988
				CHANNELS 6 Xposition Yposition Zposition Yrotation Xrotation Zrotation
				JOINT LeftArm
				{
					OFFSET 15.992189 0.000000 0.000000
					CHANNELS 6 Xposition Yposition Zposition Yrotation Xrotation Zrotation
					JOINT LeftForeArm
					{
						OFFSET 41.472099 0.000000 0.000000
						CHANNELS 6 Xposition Yposition Zposition Yrotation Xrotation Zrotation
						JOINT LeftHand
						{
							OFFSET 37.091515 0.000000 0.000000
							CHANNELS 6 Xposition Yposition Zposition Yrotation Xrotation Zrotation
							End Site
							{
								OFFSET 20.734909 0.000000 0.000000
							}
						}
					}
				}
			}
			JOINT RightShoulder
			{
				OFFSET -5.529053 23.183556 -0.602988
				CHANNELS 6 Xposition Yposition Zposition Yrotation Xrotation Zrotation
				JOINT RightArm
				{
					OFFSET -15.992191 0.000000 0.000000
					CHANNELS 6 Xposition Yposition Zposition Yrotation Xrotation Zrotation
					JOINT RightForeArm
					{
						OFFSET -41.472099 0.000000 0.000000
						CHANNELS 6 Xposition Yposition Zposition Yrotation Xrotation Zrotation
						JOINT RightHand
						{
							OFFSET -37.091511 0.000000 0.000000
							CHANNELS 6 Xposition Yposition Zposition Yrotation Xrotation Zrotation
							End Site
							{
								OFFSET -20.734909 0.000000 0.000000
							}
						}
					}
				}
			}
		}
	}
	JOINT LeftUpLeg
	{
		OFFSET 13.823269 0.000000 0.000000
		CHANNELS 6 Xposition Yposition Zposition Yrotation Xrotation Zrotation
		JOINT LeftLeg
		{
			OFFSET 0.000000 -71.945976 -0.000047
			CHANNELS 6 Xposition Yposition Zposition Yrotation Xrotation Zrotation
			JOINT LeftFoot
			{
				OFFSET 0.000000 -57.796150 -0.000037
				CHANNELS 6 Xposition Yposition Zposition Yrotation Xrotation Zrotation
				JOINT LeftToeBase
				{
					OFFSET 0.000000 -8.985123 20.734898
					CHANNELS 6 Xposition Yposition Zposition Yrotation Xrotation Zrotation
					End Site
					{
						OFFSET 0.000000 0.000000 5.529308
					}
				}
			}
		}
	}
	JOINT RightUpLeg
	{
		OFFSET -13.823269 0.000000 0.000000
		CHANNELS 6 Xposition Yposition Zposition Yrotation Xrotation Zrotation
		JOINT RightLeg
		{
			OFFSET 0.000000 -71.945976 -0.000047
			CHANNELS 6 Xposition Yposition Zposition Yrotation Xrotation Zrotation
			JOINT RightFoot
			{
				OFFSET 0.000000 -57.796150 -0.000037
				CHANNELS 6 Xposition Yposition Zposition Yrotation Xrotation Zrotation
				JOINT RightToeBase
				{
					OFFSET 0.000000 -8.985123 20.734898
					CHANNELS 6 Xposition Yposition Zposition Yrotation Xrotation Zrotation
					End Site
					{
						OFFSET 0.000000 0.000000 5.529308
					}
				}
			}
		}
	}
}
MOTION
Frames: 4
Frame Time: 0.041667
0.346846 113.699547 -18.064045 -0.546857 3.147289 -1.285811 -0.000000 11.335075 0.000008 -4.089027 11.038808 -2.511389 -0.000000 25.649029 0.000016 -1.674048 10.599492 -4.267407 0.000008 28.413586 0.000025 -17.916107 11.064741 -6.784361 -0.000006 21.426060 2.764686 -18.429934 15.234626 22.444265 5.517782 23.183523 -0.602991 -17.328972 1.863885 -1.024573 15.992176 0.000021 0.000017 -64.492238 43.698058 -48.813750 41.472084 0.000001 -0.000049 -60.758460 37.369307 71.919843 37.091553 0.000071 -0.000004 -11.172147 -8.300748 33.453334 -5.529050 23.183542 -0.603008 7.685621 -1.657649 -2.429387 -15.992183 0.000005 0.000022 31.328756 22.686642 29.767132 -41.472103 0.000006 -0.000012 -2.479870 -11.268879 -3.559199 -37.091496 -0.000020 0.000017 -3.056391 -11.745898 -20.903442 13.823268 0.000003 0.000004 -14.140326 -13.372815 38.737886 -0.000012 -71.945938 -0.000046 15.136953 43.228441 -25.678988 -0.000005 -57.796158 -0.000032 25.652871 -15.550285 -8.849717 -0.000013 -8.985124 20.734880 -0.000004 -0.000000 -0.000003 -13.823268 0.000001 0.000003 2.186516 -18.332235 -34.467498 0.000004 -71.945969 -0.000052 1.980272 39.718236 35.457715 0.000018 -57.796188 -0.000041 -34.114196 -20.865985 7.700517 -0.000004 -8.985122 20.734896 -0.000001 -0.000003 0.000002 
0.334985 113.699570 -18.050190 -0.545425 3.151847 -1.291223 -0.000000 11.335098 0.000008 -4.084855 11.052049 -2.516531 0.000001 25.648991 0.000019 -1.673413 10.614479 -4.272317 0.000003 28.413620 0.000036 -17.914357 11.066187 -6.776249 -0.000008 21.426100 2.764673 -18.429633 15.225258 22.430522 5.517778 23.183559 -0.602982 -17.326250 1.862711 -1.021255 15.992180 0.000044 0.000017 -64.516813 43.706493 -48.840401 41.472111 0.000011 -0.000031 -60.743891 37.373279 71.937663 37.091545 0.000010 -0.000014 -11.169828 -8.304775 33.394697 -5.529050 23.183558 -0.602975 7.681902 -1.657423 -2.418271 -15.992205 0.000037 0.000015 31.345490 22.702451 29.772651 -41.472118 -0.000003 -0.000028 -2.466069 -11.303115 -3.553839 -37.091515 -0.000012 0.000024 -3.035068 -11.778512 -20.969297 13.823265 0.000016 -0.000002 -14.140647 -13.368594 38.743982 -0.000002 -71.945992 -0.000039 15.074040 43.201138 -25.713874 -0.000024 -57.796173 -0.000040 25.704505 -15.539408 -8.882802 -0.000004 -8.985124 20.734901 -0.000004 0.000000 -0.000003 -13.823267 -0.000002 -0.000004 2.180264 -18.335446 -34.457253 -0.000004 -71.945999 -0.000049 1.990346 39.723783 35.467192 0.000023 -57.796173 -0.000042 -34.121422 -20.874433 7.700610 -0.000006 -8.985124 20.734880 0.000001 0.000000 0.000002 
0.320897 113.703667 -18.042648 -0.537292 3.165283 -1.296417 0.000000 11.335100 0.000000 -4.085722 11.062766 -2.508232 -0.000002 25.649014 0.000013 -1.671908 10.611385 -4.252598 0.000002 28.413647 0.000019 -17.912890 11.068968 -6.768329 0.000004 21.426062 2.764662 -18.430738 15.210821 22.391524 5.517779 23.183552 -0.602982 -17.315535 1.873210 -1.030639 15.992190 0.000029 0.000023 -64.575026 43.711954 -48.877363 41.472099 -0.000004 0.000006 -60.683246 37.358010 71.999141 37.091515 0.000062 0.000000 -11.191221 -8.315474 33.364842 -5.529049 23.183552 -0.602984 7.690329 -1.641491 -2.427339 -15.992200 -0.000011 -0.000000 31.359929 22.715818 29.785389 -41.472103 -0.000039 0.000016 -2.485061 -11.292720 -3.535022 -37.091530 -0.000014 -0.000007 -3.052197 -11.772743 -21.031790 13.823270 0.000012 -0.000003 -14.148154 -13.377936 38.752004 0.000003 -71.945992 -0.000041 15.080158 43.198990 -25.696213 -0.000014 -57.796177 -0.000047 25.699497 -15.534644 -8.869254 0.000002 -8.985124 20.734901 0.000002 0.000001 -0.000000 -13.823268 0.000010 -0.000001 2.172973 -18.346740 -34.442202 -0.000014 -71.945961 -0.000049 1.960146 39.746356 35.442729 0.000023 -57.796185 -0.000034 -34.105628 -20.878452 7.712759 0.000010 -8.985124 20.734886 0.000002 0.000001 0.000002 
0.306771 113.704018 -18.029902 -0.532787 3.166831 -1.295431 0.000001 11.335095 0.000011 -4.079231 11.065667 -2.498302 -0.000000 25.648952 0.000015 -1.669123 10.620218 -4.238794 -0.000002 28.413620 0.000029 -17.908093 11.053788 -6.771573 -0.000005 21.426144 2.764640 -18.427096 15.214960 22.378235 5.517778 23.183521 -0.602973 -17.314449 1.867736 -1.042856 15.992193 -0.000010 0.000029 -64.566331 43.712087 -48.874119 41.472134 -0.000002 -0.000024 -60.711660 37.371489 71.966882 37.091545 -0.000012 -0.000020 -11.184115 -8.299915 33.359921 -5.529058 23.183548 -0.602983 7.685350 -1.647873 -2.438657 -15.992202 0.000048 -0.000005 31.454664 22.806382 29.849474 -41.472122 0.000002 -0.000046 -2.539973 -11.347731 -3.551796 -37.091537 -0.000021 0.000013 -3.022810 -11.818976 -20.982360 13.823270 0.000017 -0.000003 -14.146650 -13.374586 38.748486 0.000004 -71.945976 -0.000046 15.080914 43.189065 -25.683402 -0.000016 -57.796177 -0.000046 25.710099 -15.513036 -8.921379 -0.000013 -8.985123 20.734894 0.000008 -0.000001 -0.000001 -13.823270 0.000033 -0.000004 2.169797 -18.346875 -34.433678 0.000021 -71.945969 -0.000039 1.919346 39.779923 35.407776 0.000017 -57.796158 -0.000032 -34.079157 -20.868082 7.667242 -0.000000 -8.985125 20.734915 0.000005 0.000004 0.000001 
